<svg width="128" height="64" viewBox="0 0 128 64" fill="none" xmlns="http://www.w3.org/2000/svg">
<path d="M47.3624 51.4184C44.3641 51.4184 41.6621 50.8082 39.2564 49.588C36.8857 48.3329 35.0204 46.6071 33.6607 44.4107C32.3359 42.2142 31.6735 39.7214 31.6735 36.9323C31.6735 34.1432 32.3359 31.6504 33.6607 29.4539C35.0204 27.2575 36.8857 25.5491 39.2564 24.3289C41.6621 23.0738 44.3641 22.4462 47.3624 22.4462C50.3258 22.4462 52.9058 23.0738 55.1022 24.3289C57.3335 25.5491 58.9547 27.3098 59.9658 29.6108L53.6379 33.0101C52.1736 30.4301 50.0644 29.1401 47.3101 29.1401C45.1834 29.1401 43.4227 29.8374 42.0282 31.232C40.6336 32.6266 39.9363 34.5267 39.9363 36.9323C39.9363 39.3379 40.6336 41.238 42.0282 42.6326C43.4227 44.0272 45.1834 44.7244 47.3101 44.7244C50.0992 44.7244 52.2085 43.4345 53.6379 40.8545L59.9658 44.3061C58.9547 46.5374 57.3335 48.2806 55.1022 49.5357C52.9058 50.7908 50.3258 51.4184 47.3624 51.4184ZM81.5597 22.4462C85.0461 22.4462 87.8527 23.4921 89.9794 25.584C92.141 27.6758 93.2218 30.7788 93.2218 34.8927V51H85.0635V36.1478C85.0635 33.9165 84.5754 32.2605 83.5992 31.1797C82.623 30.064 81.211 29.5062 79.3632 29.5062C77.3062 29.5062 75.6676 30.1512 74.4474 31.4412C73.2271 32.6963 72.617 34.579 72.617 37.0892V51H64.4588V12.1961H72.617V25.7932C73.6978 24.7124 75.0052 23.8931 76.5392 23.3352C78.0732 22.7426 79.7467 22.4462 81.5597 22.4462Z" fill="white"/>
<path d="M19.0142 44.0758C17.9551 44.4801 16.7305 44.6823 15.3404 44.6823C14.875 44.6823 14.4282 44.6586 14 44.6111V50.9709C14.3749 50.9903 14.7555 51 15.1418 51C19.974 51 23.6478 49.5343 26.1631 46.6029L22.0426 42.0542C21.1158 42.9639 20.1064 43.6378 19.0142 44.0758Z" fill="white"/>
<path d="M21.1489 24.6679C19.0638 23.556 16.747 23 14.1986 23V28.9639C15.7872 28.9639 17.1442 29.3851 18.2695 30.2274C19.3948 31.0698 20.1395 32.1986 20.5035 33.6137L14 34.9025V36.3853V39.5047V40.9875L28 38.2301V36.7473C28 33.917 27.3712 31.4741 26.1135 29.4188C24.8889 27.3297 23.234 25.7461 21.1489 24.6679Z" fill="white"/>
<path d="M104.73 49.1047C107.18 50.3682 109.937 51 113 51V44.0686C110.838 44.0686 109.054 43.3466 107.649 41.9025C106.243 40.4224 105.541 38.4549 105.541 36C105.541 33.5451 106.243 31.5957 107.649 30.1516C109.054 28.6715 110.838 27.9314 113 27.9314V21C109.937 21 107.18 21.6498 104.73 22.9495C102.315 24.213 100.423 25.9819 99.0541 28.2563C97.6847 30.5307 97 33.1119 97 36C97 38.8881 97.6847 41.4693 99.0541 43.7437C100.423 46.0181 102.315 47.8051 104.73 49.1047Z" fill="white"/>
<path d="M125.071 29.2754C123.785 27.0145 122.008 25.256 119.741 24L117 31.1594C118.32 32.5949 118.98 34.5328 118.98 36.9731C118.98 39.4134 118.32 41.3692 117 42.8406L119.741 50C122.008 48.7081 123.785 46.9317 125.071 44.6708C126.357 42.4099 127 39.844 127 36.9731C127 34.1021 126.357 31.5362 125.071 29.2754Z" fill="#F1CC06"/>
<path d="M1.92893 29.2754C3.21489 27.0145 4.99154 25.256 7.25888 24L10 31.1594C8.6802 32.5949 8.0203 34.5328 8.0203 36.9731C8.0203 39.4134 8.6802 41.3692 10 42.8406L7.25888 50C4.99154 48.7081 3.21489 46.9317 1.92893 44.6708C0.642978 42.4099 0 39.844 0 36.9731C0 34.1021 0.642978 31.5362 1.92893 29.2754Z" fill="#F1CC06"/>
</svg>
